<?xml version="1.0" encoding="UTF-8" standalone="no"?>
<svg
   version="1.1"
   id="Layer_1"
   x="0px"
   y="0px"
   width="24px"
   height="24px"
   viewBox="0 0 24 24"
   enable-background="new 0 0 24 24"
   xml:space="preserve"
   sodipodi:docname="database.svg"
   inkscape:version="1.2.2 (732a01da63, 2022-12-09)"
   xmlns:inkscape="http://www.inkscape.org/namespaces/inkscape"
   xmlns:sodipodi="http://sodipodi.sourceforge.net/DTD/sodipodi-0.dtd"
   xmlns="http://www.w3.org/2000/svg"
   xmlns:svg="http://www.w3.org/2000/svg"><defs
   id="defs337" /><sodipodi:namedview
   id="namedview335"
   pagecolor="#505050"
   bordercolor="#ffffff"
   borderopacity="1"
   inkscape:showpageshadow="0"
   inkscape:pageopacity="0"
   inkscape:pagecheckerboard="1"
   inkscape:deskcolor="#505050"
   showgrid="false"
   inkscape:zoom="13.906433"
   inkscape:cx="5.1774598"
   inkscape:cy="11.865012"
   inkscape:window-width="1280"
   inkscape:window-height="961"
   inkscape:window-x="-8"
   inkscape:window-y="-8"
   inkscape:window-maximized="1"
   inkscape:current-layer="icon" />
  <g
   id="icon">
    
  <path
   style="display:inline;fill:#ffffff;fill-opacity:1;stroke-width:0.223904"
   d="M 9.2177061,22.449563 C 7.323711,22.205875 5.2645534,21.522553 4.098144,20.75066 L 3.2049774,20.159591 2.8837698,19.538444 2.5625627,18.917299 v -1.106588 -1.106587 l 1.7352613,0.867066 1.7352619,0.867067 1.7258221,0.340354 1.7258222,0.340352 h 2.4526938 2.452696 l 1.754958,-0.329044 1.754958,-0.329044 1.735261,-0.878376 1.735262,-0.878375 v 1.106587 1.106588 l -0.321208,0.621145 -0.321207,0.621147 -0.893166,0.591069 c -0.491242,0.32509 -1.485491,0.790608 -2.209443,1.034491 l -1.316275,0.443421 -1.885595,0.236435 c -2.127985,0.266827 -3.032953,0.264141 -5.205959,-0.01544 z m 0,-4.463558 C 7.3597251,17.729151 5.2820781,17.047496 4.1186528,16.313057 L 3.2470372,15.762831 2.9048001,15.101017 2.5625627,14.439203 V 13.332617 12.22603 l 1.7352613,0.867066 1.7352619,0.867067 1.7258221,0.340353 1.7258222,0.340353 h 2.4818308 2.48183 l 1.725822,-0.340353 1.725823,-0.340353 1.735261,-0.867067 1.735262,-0.867066 v 1.174308 1.174308 l -0.509071,0.755411 -0.509071,0.755408 -1.22619,0.614442 -1.226191,0.614442 -1.465556,0.334807 -1.465556,0.334808 -2.11692,0.105905 -2.116919,0.105906 z m 0,-4.492631 C 7.323711,13.249686 5.2645534,12.566365 4.098144,11.794472 L 3.2049774,11.203402 2.8837698,10.582255 2.5625627,9.9611088 V 8.7032672 7.4454255 l 0.6604676,0.4702943 c 0.3632574,0.2586621 1.1945038,0.712027 1.847214,1.0074781 l 1.1867462,0.5371833 1.7258223,0.3511972 1.7258224,0.3511966 h 2.2579258 2.257926 L 15.95031,9.8115784 17.676131,9.4603812 18.862878,8.9231979 c 0.652709,-0.2954511 1.483956,-0.748816 1.847214,-1.0074781 l 0.660467,-0.4702943 v 1.2578417 1.2578416 l -0.321208,0.6211462 -0.321207,0.621147 -0.893166,0.59107 c -0.491242,0.325089 -1.485491,0.790609 -2.209443,1.034491 l -1.316275,0.44342 -1.885595,0.236434 c -2.127985,0.266827 -3.032953,0.264142 -5.205959,-0.01544 z M 9.3665919,9.0463504 C 5.7763596,8.5397646 3.0414505,7.1144308 2.6474424,5.5445779 L 2.517489,5.0268017 2.9863166,4.2682228 3.4551443,3.5096438 4.7671835,2.8103342 6.0792226,2.1110245 7.6234869,1.7381171 9.167752,1.3652098 l 2.686857,-0.013728 2.686855,-0.013728 1.679287,0.3865321 1.679285,0.386532 1.31418,0.7295424 1.31418,0.7295424 0.477058,0.8334842 0.477057,0.8334845 -0.477057,0.8334844 -0.477058,0.8334841 -1.31418,0.7282132 -1.31418,0.7282129 -1.465556,0.3337541 -1.465556,0.3337542 -2.11692,0.1058357 -2.116919,0.1058362 z"
   id="path299" /></g>
</svg>
