<?xml version="1.0" encoding="UTF-8" standalone="no"?>
<svg
   viewBox="0 0 55.470001 55.470001"
   version="1.1"
   id="svg48"
   sodipodi:docname="lockup.svg"
   width="55.470001"
   height="55.470001"
   inkscape:version="1.2.2 (732a01da63, 2022-12-09)"
   xmlns:inkscape="http://www.inkscape.org/namespaces/inkscape"
   xmlns:sodipodi="http://sodipodi.sourceforge.net/DTD/sodipodi-0.dtd"
   xmlns="http://www.w3.org/2000/svg"
   xmlns:svg="http://www.w3.org/2000/svg">
  <sodipodi:namedview
     id="namedview50"
     pagecolor="#505050"
     bordercolor="#ffffff"
     borderopacity="1"
     inkscape:showpageshadow="0"
     inkscape:pageopacity="0"
     inkscape:pagecheckerboard="1"
     inkscape:deskcolor="#505050"
     showgrid="false"
     inkscape:zoom="5.2149125"
     inkscape:cx="24.0656"
     inkscape:cy="36.433977"
     inkscape:window-width="1280"
     inkscape:window-height="961"
     inkscape:window-x="-8"
     inkscape:window-y="-8"
     inkscape:window-maximized="1"
     inkscape:current-layer="svg48" />
  <defs
     id="defs24">
    <clipPath
       id="a">
      <path
         d="m 33.56,17.49 a 1.21,1.21 0 0 0 -1.38,-1 1.1,1.1 0 0 0 -0.65,0.33 l -6.24,6.23 -4.88,-9.32 a 1.2,1.2 0 0 0 -1.62,-0.51 1.39,1.39 0 0 0 -0.51,0.51 L 15.62,18.83 8.91,6.31 A 1.19,1.19 0 0 0 7.29,5.84 1.23,1.23 0 0 0 6.66,6.7 L 0.16,48.22 17.51,58 A 3.63,3.63 0 0 0 21,58 l 17.5,-9.74 z"
         style="fill:none"
         id="path2" />
    </clipPath>
    <linearGradient
       id="b"
       x1="7.6300001"
       y1="-231.98"
       x2="5.2399998"
       y2="-233.23"
       gradientTransform="translate(0,265.99)"
       gradientUnits="userSpaceOnUse">
      <stop
         offset="0"
         stop-color="#a52714"
         id="stop5" />
      <stop
         offset="0.4"
         stop-color="#a52714"
         stop-opacity="0.5"
         id="stop7" />
      <stop
         offset="0.8"
         stop-color="#a52714"
         stop-opacity="0"
         id="stop9" />
    </linearGradient>
    <linearGradient
       id="c"
       x1="17.809999"
       y1="-235.47"
       x2="16.74"
       y2="-236.53999"
       gradientTransform="translate(0,265.99)"
       gradientUnits="userSpaceOnUse">
      <stop
         offset="0"
         stop-color="#a52714"
         stop-opacity="0.8"
         id="stop12" />
      <stop
         offset="0.5"
         stop-color="#a52714"
         stop-opacity="0.21"
         id="stop14" />
      <stop
         offset="1"
         stop-color="#a52714"
         stop-opacity="0"
         id="stop16" />
    </linearGradient>
    <linearGradient
       id="d"
       x1="-620.53998"
       y1="-1271.77"
       x2="-605.54999"
       y2="-1286.77"
       gradientTransform="matrix(2.67,0,0,-2.67,1655.98,-3380.66)"
       gradientUnits="userSpaceOnUse">
      <stop
         offset="0"
         stop-color="#fff"
         stop-opacity="0.1"
         id="stop19" />
      <stop
         offset="1"
         stop-color="#fff"
         stop-opacity="0"
         id="stop21" />
    </linearGradient>
  </defs>
  <rect
     x="0"
     y="0"
     width="55.470001"
     height="55.470001"
     style="fill:none"
     id="rect26" />
  <g
     clip-path="url(#a)"
     id="g44"
     transform="translate(8.5200005,-4.5900002)">
    <path
       d="M 0.16,48.22 6.66,6.7 A 1.18,1.18 0 0 1 8,5.72 1.26,1.26 0 0 1 8.87,6.34 l 6.71,12.53 2.66,-5.1 a 1.2,1.2 0 0 1 1.62,-0.51 1.39,1.39 0 0 1 0.51,0.51 l 18.1,34.45 z"
       style="fill:#ffa000"
       id="path28" />
    <path
       d="M 22.33,6 -9.43,3.29 V 60.81 L 0.16,48.22 Z"
       style="opacity:0.12;isolation:isolate;fill:url(#b)"
       id="path30" />
    <path
       d="M 22.6,32.05 15.6,18.84 0.16,48.22 Z"
       style="fill:#f57c00"
       id="path32" />
    <path
       d="M -9.43,3.29 H 48.09 V 60.81 H -9.43 Z"
       style="opacity:0.2;isolation:isolate;fill:url(#c)"
       id="path34" />
    <path
       d="m 38.51,48.22 -5,-30.76 a 1.21,1.21 0 0 0 -1.38,-1 1.13,1.13 0 0 0 -0.65,0.33 L 0.16,48.22 17.51,58 A 3.63,3.63 0 0 0 21,58 Z"
       style="fill:#ffca28"
       id="path36" />
    <path
       d="m 33.56,17.49 a 1.21,1.21 0 0 0 -1.38,-1 1.1,1.1 0 0 0 -0.65,0.33 l -6.24,6.23 -4.88,-9.32 a 1.2,1.2 0 0 0 -1.62,-0.51 1.39,1.39 0 0 0 -0.51,0.51 L 15.62,18.83 8.91,6.31 A 1.19,1.19 0 0 0 7.29,5.84 1.23,1.23 0 0 0 6.66,6.7 l -6.5,41.52 v 0 0 l 0.18,0.09 25,-25 6.24,-6.23 a 1.18,1.18 0 0 1 1.7,0 1.07,1.07 0 0 1 0.33,0.66 l 4.92,30.46 h 0.06 z M 0.22,48.16 6.66,7 A 1.17,1.17 0 0 1 8,6 1.23,1.23 0 0 1 8.87,6.62 l 6.71,12.53 2.66,-5.1 a 1.19,1.19 0 0 1 1.62,-0.51 1.39,1.39 0 0 1 0.51,0.51 l 4.79,9.11 z"
       style="fill:#ffffff;fill-opacity:0.2"
       id="path38" />
    <path
       d="m 21,57.66 a 3.63,3.63 0 0 1 -3.5,0 L 0.19,48 v 0.27 L 17.51,58 A 3.63,3.63 0 0 0 21,58 l 17.5,-9.74 v -0.27 z"
       style="opacity:0.2;isolation:isolate;fill:#a52714"
       id="path40" />
    <path
       d="m 33.56,17.49 a 1.21,1.21 0 0 0 -1.38,-1 1.1,1.1 0 0 0 -0.65,0.33 l -6.24,6.23 -4.88,-9.32 a 1.2,1.2 0 0 0 -1.62,-0.51 1.39,1.39 0 0 0 -0.51,0.51 L 15.62,18.83 8.91,6.31 A 1.19,1.19 0 0 0 7.29,5.84 1.23,1.23 0 0 0 6.66,6.7 L 0.16,48.22 17.51,58 A 3.63,3.63 0 0 0 21,58 l 17.5,-9.74 z"
       style="fill:url(#d)"
       id="path42" />
  </g>
</svg>
