<?xml version="1.0" encoding="UTF-8"?>
<!DOCTYPE svg PUBLIC "-//W3C//DTD SVG 1.1//EN" "http://www.w3.org/Graphics/SVG/1.1/DTD/svg11.dtd">
<svg version="1.1" id="Layer_1" xmlns="http://www.w3.org/2000/svg" xmlns:xlink="http://www.w3.org/1999/xlink" x="0px" y="0px" width="24px" height="24px" viewBox="0 0 24 24" enable-background="new 0 0 24 24" xml:space="preserve">
  <g id="icon">
    <path d="M15,9H9v6h6V9zm-2,4h-2v-2h2v2zm8,-2V9h-2V7c0,-1.1,-0.9,-2,-2,-2h-2V3h-2v2h-2V3H9v2H7c-1.1,0,-2,0.9,-2,2v2H3v2h2v2H3v2h2v2c0,1.1,0.9,2,2,2h2v2h2v-2h2v2h2v-2h2c1.1,0,2,-0.9,2,-2v-2h2v-2h-2v-2h2zm-4,6H7V7h10v10z" fill="#FFFFFF"/>
  </g>
</svg>
